<svg xmlns="http://www.w3.org/2000/svg" viewBox="0 0 24 24" fill="none" stroke="currentColor" stroke-width="1.5" stroke-linecap="round" stroke-linejoin="round">
  <path d="M12 2C6.5 2 2 6.5 2 12c0 4.4 2.9 8.2 6.9 9.5.5.1.7-.2.7-.5v-1.9c-2.8.6-3.4-1.4-3.4-1.4-.5-1.2-1.1-1.5-1.1-1.5-.9-.6.1-.6.1-.6 1 .1 1.5 1 1.5 1 .9 1.6 2.4 1.1 2.9.9.1-.6.3-1.1.6-1.3-2.2-.3-4.6-1.1-4.6-5 0-1.1.4-2 1-2.7-.1-.3-.4-1.3.1-2.7 0 0 .8-.3 2.7 1 1.6-.5 3.3-.5 5 0 1.9-1.3 2.7-1 2.7-1 .5 1.4.2 2.4.1 2.7.6.7 1 1.6 1 2.7 0 3.9-2.4 4.7-4.6 5 .3.3.6.9.6 1.8v2.7c0 .3.2.6.7.5 4-1.3 6.9-5.1 6.9-9.5C22 6.5 17.5 2 12 2z"></path>
</svg> 